<?xml version="1.0" encoding="UTF-8" standalone="no"?>
<!DOCTYPE svg PUBLIC "-//W3C//DTD SVG 1.1//EN"
 "http://www.w3.org/Graphics/SVG/1.1/DTD/svg11.dtd">
<!-- Generated by graphviz version 5.0.0 (20220707.1540)
 -->
<!-- Title: UmlClassDiagram Pages: 1 -->
<svg width="297pt" height="280pt"
 viewBox="0.00 0.00 297.38 279.60" xmlns="http://www.w3.org/2000/svg" xmlns:xlink="http://www.w3.org/1999/xlink">
<g id="graph0" class="graph" transform="scale(1 1) rotate(0) translate(4 275.6)">
<title>UmlClassDiagram</title>
<polygon fill="white" stroke="transparent" points="-4,4 -4,-275.6 293.38,-275.6 293.38,4 -4,4"/>
<!-- 0 -->
<g id="node1" class="node">
<title>0</title>
<polygon fill="#f2f2f2" stroke="black" points="0,-137.5 0,-271.1 289.38,-271.1 289.38,-137.5 0,-137.5"/>
<text text-anchor="middle" x="144.69" y="-254.5" font-family="Times,serif" font-size="14.00">&lt;&lt;Library&gt;&gt;</text>
<text text-anchor="middle" x="144.69" y="-237.7" font-family="Times,serif" font-size="14.00">CommonUtils</text>
<text text-anchor="middle" x="144.69" y="-220.9" font-family="Times,serif" font-size="14.00">@etherscancontractsutilsCommonUtils.sol</text>
<polyline fill="none" stroke="black" points="0,-212.7 289.38,-212.7 "/>
<text text-anchor="start" x="8" y="-196.1" font-family="Times,serif" font-size="14.00">Internal:</text>
<text text-anchor="start" x="8" y="-179.3" font-family="Times,serif" font-size="14.00"> &#160;&#160;&#160;encodeString(_str: string): bytes32</text>
<text text-anchor="start" x="8" y="-162.5" font-family="Times,serif" font-size="14.00"> &#160;&#160;&#160;isEqualString(_str1: string, _str2: string): bool</text>
<text text-anchor="start" x="8" y="-145.7" font-family="Times,serif" font-size="14.00"> &#160;&#160;&#160;isEmptyString(_str: string): bool</text>
</g>
<!-- 1 -->
<g id="node2" class="node">
<title>1</title>
<polygon fill="#f2f2f2" stroke="black" points="16.9,-0.5 16.9,-100.5 272.48,-100.5 272.48,-0.5 16.9,-0.5"/>
<text text-anchor="middle" x="144.69" y="-83.9" font-family="Times,serif" font-size="14.00">&lt;&lt;Enum&gt;&gt;</text>
<text text-anchor="middle" x="144.69" y="-67.1" font-family="Times,serif" font-size="14.00">IncDec</text>
<text text-anchor="middle" x="144.69" y="-50.3" font-family="Times,serif" font-size="14.00">@etherscancontractsutilsCommonUtils.sol</text>
<polyline fill="none" stroke="black" points="16.9,-42.1 272.48,-42.1 "/>
<text text-anchor="start" x="24.9" y="-25.5" font-family="Times,serif" font-size="14.00">Increase: 0</text>
<text text-anchor="start" x="24.9" y="-8.7" font-family="Times,serif" font-size="14.00">Decrease: 1</text>
</g>
<!-- 1&#45;&gt;0 -->
<g id="edge1" class="edge">
<title>1&#45;&gt;0</title>
<path fill="none" stroke="black" d="M144.69,-100.79C144.69,-108.64 144.69,-116.92 144.69,-125.25"/>
<polygon fill="black" stroke="black" points="144.69,-125.42 148.69,-131.42 144.69,-137.42 140.69,-131.42 144.69,-125.42"/>
</g>
</g>
</svg>
